<svg width="1000" height="300" xmlns="http://www.w3.org/2000/svg" stroke="null" style="vector-effect: non-scaling-stroke;" preserveAspectRatio="xMidYMid meet" version="1.0">
    <g stroke="null" id="svg_1" fill="currentColor" transform="translate(0 1080) scale(0.1 -0.1)">
        <path stroke="null" id="svg_2" d="m485.67918,10422.66516c-192.76339,-53.66618 -354.47046,-212.47425 -414.4413,-409.61531c-55.6872,-181.80786 -42.83631,-338.42548 40.69449,-510.3763c82.4599,-168.66513 205.61429,-293.52113 467.98668,-477.51945c231.31607,-159.9033 288.07418,-232.18836 288.07418,-359.23482c0,-73.38028 -25.70179,-134.71306 -80.31808,-196.04583c-70.67991,-81.04688 -162.77798,-107.33235 -267.72694,-77.7612c-85.67262,24.09502 -160.63616,141.28443 -134.93438,210.2838c25.70179,66.80891 106.01987,91.99916 167.06161,51.47572c42.83631,-29.57116 71.75082,-27.3807 111.37441,6.57137c43.90722,38.33298 44.97813,83.23734 1.07091,124.856c-51.40357,48.19004 -102.80714,67.90414 -178.84159,67.90414c-283.79055,-2.19046 -394.09405,-357.04436 -178.84159,-576.08998c28.91451,-30.66639 82.4599,-68.99937 122.08348,-87.61825c64.25446,-31.76161 78.17627,-33.95207 188.47976,-33.95207c114.58713,0 119.94167,1.09523 198.11793,40.52344c223.81972,113.90372 343.76138,350.47299 295.57054,584.85181c-38.55268,185.09355 -127.43802,294.61636 -387.6686,475.329c-209.89792,146.76057 -325.55595,260.66429 -381.24316,378.94892c-32.12723,67.90414 -36.41086,85.42779 -36.41086,168.66513c0,121.57032 35.33996,205.90288 118.87076,283.66408c172.41615,162.09376 488.33393,156.61762 571.86473,-8.76182c59.97083,-121.57032 -10.70908,-296.80682 -119.94167,-296.80682c-32.12723,0 -41.7654,8.76182 -73.89263,63.52323c-17.13452,30.66639 -25.70179,36.14253 -54.61629,32.85684c-101.73624,-9.85705 -62.11265,-186.18878 52.47448,-234.37881c93.16897,-40.52344 222.74881,1.09523 287.00327,93.09439c49.26176,67.90414 62.11265,124.856 56.75811,233.28359c-6.42545,123.76078 -48.19085,214.66471 -146.71436,314.33047c-107.09077,110.61804 -214.18155,154.42716 -370.53408,153.33193c-47.11994,0 -111.37441,-7.6666 -141.35982,-15.33319z"/>
        <path stroke="null" id="svg_3" d="m2566.45292,10422.66516c-149.92708,-43.80912 -298.78326,-164.28422 -368.39226,-297.90204c-71.75082,-137.99874 -96.3817,-328.56843 -61.04174,-468.75763c61.04174,-242.04541 207.7561,-413.99622 555.80112,-651.66072c142.43073,-96.38007 203.47247,-157.71285 238.81243,-237.6645c22.48906,-48.19004 25.70179,-71.18983 21.41815,-113.90372c-12.85089,-112.80849 -89.95625,-220.14085 -184.19613,-257.3786c-57.82902,-21.90456 -142.43073,-17.52365 -202.40156,12.04751c-53.54539,26.28547 -102.80714,102.95144 -102.80714,162.09376c0,89.8087 104.94896,140.1892 175.62887,83.23734c55.6872,-44.90435 134.93438,-5.47614 134.93438,66.80891c0,97.4753 -163.84888,164.28422 -297.71235,119.37986c-56.75811,-18.61888 -118.87076,-67.90414 -153.13981,-121.57032c-113.51622,-175.2365 -23.55997,-426.04373 191.69249,-530.0904c84.60171,-40.52344 224.89063,-48.19004 319.13051,-17.52365c168.13252,53.66618 319.13051,217.95039 356.61228,386.61552c17.13452,72.28505 13.9218,194.9506 -5.35454,262.85474c-48.19085,167.5699 -136.00528,269.42611 -376.95952,435.90078c-190.62158,131.42737 -262.3724,196.04583 -330.91049,293.52113c-67.46719,96.38007 -92.09807,166.47467 -91.02716,260.66429c0,171.95081 93.16897,297.90204 269.86875,369.09187c85.67262,33.95207 231.31607,33.95207 305.20871,0c67.46719,-31.76161 99.59442,-61.33277 124.2253,-117.18941c36.41086,-81.04688 19.27634,-173.04604 -43.90722,-237.6645c-65.32537,-66.80891 -123.15439,-56.95186 -158.49435,27.3807c-8.56726,20.80933 -20.34725,29.57116 -39.62359,29.57116c-53.54539,0 -69.609,-17.52365 -69.609,-74.47551c0,-99.66576 83.5308,-177.42695 190.62158,-177.42695c98.52351,0 191.69249,63.52323 238.81243,162.09376c34.26905,71.18983 34.26905,221.23608 1.07091,308.85432c-50.33266,130.33214 -174.55796,258.47383 -299.85417,307.7591c-77.10536,30.66639 -258.08877,39.42821 -338.40685,15.33319z"/>
        <path stroke="null" id="svg_4" d="m3815.13135,10421.56993c-253.80513,-68.99937 -429.434,-296.80682 -448.71034,-577.18521c-19.27634,-297.90204 144.57255,-546.51882 537.59569,-814.84971c165.9907,-113.90372 232.38698,-175.2365 268.79784,-250.80724c24.63088,-50.38049 27.8436,-70.0946 22.48906,-123.76078c-17.13452,-197.14106 -206.68519,-328.56843 -366.25045,-254.09292c-55.6872,25.19025 -109.23259,88.71348 -118.87076,137.99874c-18.20543,104.04667 85.67262,174.14127 172.41615,114.99895c44.97813,-30.66639 77.10536,-27.3807 113.51622,9.85705c38.55268,39.42821 39.62359,65.71369 3.21272,110.61804c-43.90722,52.57095 -103.87805,78.85642 -182.05432,78.85642c-262.3724,-2.19046 -388.73951,-306.66387 -220.60699,-532.28086c121.01257,-163.18899 355.54137,-219.04562 540.80841,-128.14169c83.5308,40.52344 198.11793,144.57011 239.88333,216.85516c72.82173,127.04646 88.88534,306.66387 40.69449,446.85307c-53.54539,155.52239 -131.72165,238.75973 -383.38497,411.80577c-200.25975,137.99874 -299.85417,238.75973 -357.68319,357.04436c-111.37441,231.09313 -9.63817,472.04331 234.5288,557.4711c68.5381,24.09502 197.04702,27.3807 268.79784,5.47614c63.18356,-18.61888 141.35982,-87.61825 157.42344,-139.09397c40.69449,-123.76078 -40.69449,-274.90225 -141.35982,-265.0452c-28.91451,2.19046 -39.62359,10.95228 -57.82902,47.09481c-16.06362,32.85684 -28.91451,44.90435 -51.40357,47.09481c-103.87805,13.14274 -87.81443,-158.80807 21.41815,-223.42653c51.40357,-30.66639 133.86347,-35.0473 191.69249,-10.95228c62.11265,27.3807 130.65074,100.76099 156.35253,168.66513c18.20543,50.38049 21.41815,79.95165 18.20543,152.23671c-10.70908,206.99811 -161.70707,393.18689 -371.60499,456.71012c-71.75082,21.90456 -210.96882,21.90456 -288.07418,0z"/>
        <path stroke="null" id="svg_5" d="m6075.81759,10422.66516c-192.76339,-53.66618 -354.47046,-212.47425 -414.4413,-409.61531c-55.6872,-181.80786 -42.83631,-338.42548 40.69449,-510.3763c82.4599,-168.66513 205.61429,-293.52113 467.98668,-477.51945c231.31607,-159.9033 288.07418,-232.18836 288.07418,-359.23482c0,-73.38028 -25.70179,-134.71306 -80.31808,-196.04583c-70.67991,-81.04688 -162.77798,-107.33235 -267.72694,-77.7612c-85.67262,24.09502 -160.63616,141.28443 -134.93438,210.2838c25.70179,66.80891 106.01987,91.99916 167.06161,51.47572c42.83631,-29.57116 71.75082,-27.3807 111.37441,6.57137c43.90722,38.33298 44.97813,83.23734 1.07091,124.856c-51.40357,48.19004 -102.80714,67.90414 -178.84159,67.90414c-283.79055,-2.19046 -394.09405,-357.04436 -178.84159,-576.08998c28.91451,-30.66639 82.4599,-68.99937 122.08348,-87.61825c64.25446,-31.76161 78.17627,-33.95207 188.47976,-33.95207c114.58713,0 119.94167,1.09523 198.11793,40.52344c223.81972,113.90372 343.76138,350.47299 295.57054,584.85181c-38.55268,185.09355 -127.43802,294.61636 -387.6686,475.329c-209.89792,146.76057 -325.55595,260.66429 -381.24316,378.94892c-32.12723,67.90414 -36.41086,85.42779 -36.41086,168.66513c0,121.57032 35.33996,205.90288 118.87076,283.66408c172.41615,162.09376 488.33393,156.61762 571.86473,-8.76182c59.97083,-121.57032 -10.70908,-296.80682 -119.94167,-296.80682c-32.12723,0 -41.7654,8.76182 -73.89263,63.52323c-17.13452,30.66639 -25.70179,36.14253 -54.61629,32.85684c-101.73624,-9.85705 -62.11265,-186.18878 52.47448,-234.37881c93.16897,-40.52344 222.74881,1.09523 287.00327,93.09439c49.26176,67.90414 62.11265,124.856 56.75811,233.28359c-6.42545,123.76078 -48.19085,214.66471 -146.71436,314.33047c-107.09077,110.61804 -214.18155,154.42716 -370.53408,153.33193c-47.11994,0 -111.37441,-7.6666 -141.35982,-15.33319z"/>
        <path stroke="null" id="svg_6" d="m7020.35822,10412.80811c-112.44531,-51.47572 -158.49435,-178.52218 -188.47976,-521.32858c-23.55997,-280.37839 17.13452,-652.75595 108.16168,-962.7055c18.20543,-64.61846 28.91451,-83.23734 56.75811,-100.76099c40.69449,-26.28547 85.67262,-20.80933 123.15439,15.33319c25.70179,22.99979 25.70179,26.28547 17.13452,122.66555c-5.35454,54.76141 -9.63817,159.9033 -9.63817,235.47404c0,116.09418 4.28363,147.85579 25.70179,213.56948c78.17627,232.18836 235.5997,143.47488 165.9907,-94.18962c-35.33996,-119.37986 -18.20543,-248.61678 41.7654,-315.42569c34.26905,-37.23776 101.73624,-66.80891 158.49435,-66.80891c49.26176,0 144.57255,39.42821 170.27433,71.18983c11.77999,14.23797 19.27634,12.04751 52.47448,-15.33319c85.67262,-68.99937 126.36711,-83.23734 236.67061,-83.23734c94.23988,0 108.16168,3.28568 174.55796,36.14253c111.37441,55.85663 195.97612,179.61741 217.39427,317.61615c6.42545,38.33298 9.63817,41.61867 79.24717,68.99937l71.75082,28.47593l7.49635,-247.52155c13.9218,-453.42443 49.26176,-845.51609 84.60171,-921.08683c17.13452,-36.14253 78.17627,-43.80912 115.65804,-12.04751l25.70179,20.80933l0,365.80619c0,200.42674 -6.42545,591.42318 -14.99271,869.61111c-13.9218,498.32879 -13.9218,504.90016 7.49635,547.61405c28.91451,58.04709 72.82173,101.85621 130.65074,129.23692c69.609,33.95207 227.03244,31.76161 314.84688,-4.38091c187.40885,-74.47551 272.01057,-283.66408 224.89063,-554.18542l-6.42545,-33.95207l-113.51622,1.09523c-128.50893,1.09523 -178.84159,-15.33319 -251.66332,-79.95165c-118.87076,-107.33235 -133.86347,-323.09229 -29.98542,-429.32942c125.29621,-128.14169 345.9032,-52.57095 509.75208,174.14127l63.18356,88.71348l42.83631,-24.09502c22.48906,-13.14274 85.67262,-64.61846 139.21801,-113.90372c71.75082,-66.80891 104.94896,-90.90393 126.36711,-90.90393c32.12723,0 62.11265,33.95207 62.11265,71.18983c0,61.33277 -142.43073,216.85516 -252.73423,275.99748c-32.12723,16.42842 -57.82902,36.14253 -57.82902,41.61867c0,6.57137 7.49635,48.19004 17.13452,93.09439c11.77999,59.14232 14.99271,113.90372 11.77999,191.66492c-10.70908,199.33151 -64.25446,339.52071 -172.41615,449.04352c-111.37441,112.80849 -225.96153,158.80807 -391.95223,158.80807c-143.50164,0 -253.80513,-37.23776 -350.18683,-116.09418l-43.90722,-37.23776l-7.49635,77.7612c-8.56726,88.71348 -28.91451,119.37986 -79.24717,119.37986c-83.5308,0 -95.31079,-59.14232 -104.94896,-546.51882l-6.42545,-331.85411l-68.5381,-32.85684c-38.55268,-18.61888 -72.82173,-29.57116 -77.10536,-24.09502c-4.28363,5.47614 -17.13452,35.0473 -27.8436,64.61846c-26.77269,76.66597 -122.08348,170.85558 -198.11793,197.14106c-72.82173,24.09502 -179.9125,18.61888 -240.95424,-14.23797c-47.11994,-25.19025 -132.79256,-111.71327 -185.26704,-187.28401c-47.11994,-66.80891 -78.17627,-157.71285 -86.74353,-251.90246c-6.42545,-77.7612 -8.56726,-83.23734 -40.69449,-102.95144c-24.63088,-14.23797 -44.97813,-18.61888 -67.46719,-13.14274c-41.7654,9.85705 -50.33266,54.76141 -34.26905,191.66492c17.13452,148.95102 -6.42545,242.04541 -77.10536,303.37818c-102.80714,88.71348 -218.46518,74.47551 -327.69777,-40.52344l-53.54539,-55.85663l0,50.38049c0,43.80912 7.49635,59.14232 55.6872,123.76078c124.2253,165.37944 214.18155,453.42443 180.98341,580.47089c-31.05632,114.99895 -149.92708,176.33172 -252.73423,129.23692zm129.57984,-154.42716c14.99271,-62.428 -38.55268,-289.14022 -92.09807,-388.80598l-20.34725,-38.33298l-1.07091,60.23755c0,67.90414 26.77269,300.0925 38.55268,334.04457c10.70908,30.66639 37.48177,60.23755 53.54539,60.23755c8.56726,0 17.13452,-12.04751 21.41815,-27.3807zm958.46243,-733.80283c29.98542,-16.42842 55.6872,-50.38049 67.46719,-89.8087c7.49635,-22.99979 4.28363,-25.19025 -29.98542,-25.19025c-44.97813,0 -139.21801,33.95207 -168.13252,61.33277c-66.39628,61.33277 36.41086,102.95144 130.65074,53.66618zm1240.11116,-154.42716c7.49635,-7.6666 -54.61629,-90.90393 -99.59442,-132.5226c-23.55997,-22.99979 -62.11265,-51.47572 -83.5308,-62.428c-48.19085,-26.28547 -72.82173,-12.04751 -72.82173,44.90435c0,99.66576 95.31079,175.2365 203.47247,160.99853c26.77269,-3.28568 50.33266,-8.76182 52.47448,-10.95228zm-1472.49814,-25.19025c32.12723,-36.14253 137.07619,-76.66597 218.46518,-84.33256c42.83631,-4.38091 77.10536,-10.95228 77.10536,-14.23797c0,-4.38091 -13.9218,-30.66639 -32.12723,-59.14232c-64.25446,-104.04667 -182.05432,-123.76078 -267.72694,-44.90435c-49.26176,45.99958 -58.89993,82.14211 -42.83631,163.18899c12.85089,65.71369 19.27634,71.18983 47.11994,39.42821z"/>
        <path stroke="null" id="svg_7" d="m4717.90657,9892.57476c-53.54539,-22.99979 -70.67991,-86.52302 -38.55268,-140.1892c19.27634,-31.76161 27.8436,-36.14253 69.609,-36.14253c38.55268,0 51.40357,5.47614 69.609,28.47593c28.91451,38.33298 28.91451,84.33256 -1.07091,118.28464c-27.8436,31.76161 -67.46719,42.7139 -99.59442,29.57116z"/>
        <path stroke="null" id="svg_8" d="m1857.512,9663.67209c-6.42545,-4.38091 -22.48906,-29.57116 -36.41086,-56.95186c-31.05632,-64.61846 -27.8436,-62.428 -62.11265,-29.57116c-51.40357,50.38049 -126.36711,77.7612 -216.32336,77.7612c-130.65074,0 -225.96153,-60.23755 -289.14509,-181.80786c-32.12723,-60.23755 -37.48177,-81.04688 -40.69449,-168.66513c-5.35454,-113.90372 12.85089,-190.56969 61.04174,-256.28338c62.11265,-86.52302 125.29621,-119.37986 229.17426,-120.47509c78.17627,0 129.57984,16.42842 186.33795,61.33277l34.26905,26.28547l16.06362,-30.66639c38.55268,-76.66597 125.29621,-122.66555 202.40156,-107.33235c85.67262,17.52365 197.04702,132.5226 268.79784,277.09271c34.26905,71.18983 35.33996,99.66576 4.28363,111.71327c-35.33996,14.23797 -54.61629,0 -125.29621,-95.28484c-130.65074,-176.33172 -189.55067,-197.14106 -232.38698,-84.33256c-25.70179,68.99937 -14.99271,194.9506 28.91451,361.42527c49.26176,187.28401 49.26176,196.04583 14.99271,211.37902c-32.12723,15.33319 -28.91451,15.33319 -43.90722,4.38091zm-155.28162,-202.6172l42.83631,-29.57116l-13.9218,-41.61867c-7.49635,-21.90456 -18.20543,-61.33277 -22.48906,-86.52302c-8.56726,-53.66618 -67.46719,-137.99874 -112.44531,-162.09376c-39.62359,-20.80933 -95.31079,-20.80933 -124.2253,0c-51.40357,36.14253 -70.67991,128.14169 -46.04903,216.85516c11.77999,44.90435 65.32537,113.90372 99.59442,129.23692c41.7654,17.52365 130.65074,4.38091 176.69978,-26.28547z"/>
        <path stroke="null" id="svg_9" d="m4678.28299,9584.81566c-31.05632,-24.09502 -44.97813,-72.28505 -62.11265,-212.47425c-25.70179,-213.56948 -10.70908,-315.42569 59.97083,-399.75826c44.97813,-53.66618 103.87805,-86.52302 169.20342,-95.28484c94.23988,-14.23797 231.31607,83.23734 306.27961,219.04562c34.26905,60.23755 39.62359,93.09439 19.27634,113.90372c-25.70179,26.28547 -55.6872,12.04751 -136.00528,-66.80891c-124.2253,-120.47509 -186.33795,-134.71306 -229.17426,-51.47572c-17.13452,35.0473 -18.20543,58.04709 -11.77999,242.04541c3.21272,112.80849 3.21272,213.56948 0,225.61699c-6.42545,21.90456 -47.11994,47.09481 -74.96354,47.09481c-7.49635,0 -26.77269,-9.85705 -40.69449,-21.90456z"/>
        <path stroke="null" id="svg_10" d="m7475.49401,8669.20497c-179.9125,-32.85684 -355.54137,-104.04667 -511.8939,-206.99811c-107.09077,-71.18983 -119.94167,-85.42779 -119.94167,-129.23692c0,-43.80912 14.99271,-67.90414 52.47448,-83.23734c34.26905,-15.33319 61.04174,-5.47614 148.85618,55.85663c70.67991,50.38049 254.87604,135.80828 344.83229,160.99853c122.08348,33.95207 284.86146,48.19004 397.30677,33.95207c149.92708,-18.61888 348.04502,-84.33256 464.77396,-154.42716c53.54539,-32.85684 99.59442,-30.66639 130.65074,5.47614c31.05632,37.23776 32.12723,83.23734 1.07091,112.80849c-38.55268,36.14253 -192.76339,110.61804 -313.77597,152.23671c-193.8343,65.71369 -415.5122,85.42779 -594.3538,52.57095z"/>
        <path stroke="null" id="svg_11" d="m1601.56505,8627.5863c-140.28891,-32.85684 -276.2942,-98.57053 -381.24316,-182.90309c-78.17627,-64.61846 -91.02716,-113.90372 -38.55268,-163.18899c35.33996,-33.95207 78.17627,-27.3807 140.28891,20.80933c80.31808,61.33277 140.28891,94.18962 236.67061,128.14169c72.82173,25.19025 103.87805,29.57116 203.47247,30.66639c98.52351,0 134.93438,-4.38091 222.74881,-30.66639l106.01987,-31.76161l27.8436,21.90456c38.55268,29.57116 52.47448,71.18983 36.41086,107.33235c-13.9218,30.66639 -70.67991,60.23755 -171.34524,87.61825c-87.81443,24.09502 -301.99598,30.66639 -382.31406,12.04751z"/>
        <path stroke="null" id="svg_12" d="m4851.77004,8622.11016c-94.23988,-31.76161 -197.04702,-123.76078 -235.5997,-211.37902c-17.13452,-39.42821 -18.20543,-50.38049 -6.42545,-78.85642c7.49635,-18.61888 26.77269,-40.52344 42.83631,-48.19004c42.83631,-21.90456 84.60171,0 125.29621,64.61846c65.32537,105.1419 147.78527,131.42737 265.58512,86.52302c56.75811,-20.80933 67.46719,-21.90456 94.23988,-8.76182c16.06362,7.6666 36.41086,28.47593 44.97813,45.99958c37.48177,79.95165 -61.04174,147.85579 -223.81972,155.52239c-43.90722,2.19046 -92.09807,0 -107.09077,-5.47614z"/>
    </g>
</svg>