<?xml version="1.0" standalone="no"?>
<!DOCTYPE svg PUBLIC "-//W3C//DTD SVG 20010904//EN"
 "http://www.w3.org/TR/2001/REC-SVG-20010904/DTD/svg10.dtd">
<svg version="1.0" xmlns="http://www.w3.org/2000/svg"
 width="1080.000000pt" height="1080.000000pt" viewBox="0 0 1080.000000 1080.000000"
 preserveAspectRatio="xMidYMid meet">

<g transform="translate(0.000000,1080.000000) scale(0.100000,-0.100000)" fill="currentColor" stroke="none">
<path d="M1343 6565 c-180 -49 -331 -194 -387 -374 -52 -166 -40 -309 38 -466
77 -154 192 -268 437 -436 216 -146 269 -212 269 -328 0 -67 -24 -123 -75
-179 -66 -74 -152 -98 -250 -71 -80 22 -150 129 -126 192 24 61 99 84 156 47
40 -27 67 -25 104 6 41 35 42 76 1 114 -48 44 -96 62 -167 62 -265 -2 -368
-326 -167 -526 27 -28 77 -63 114 -80 60 -29 73 -31 176 -31 107 0 112 1 185
37 209 104 321 320 276 534 -36 169 -119 269 -362 434 -196 134 -304 238 -356
346 -30 62 -34 78 -34 154 0 111 33 188 111 259 161 148 456 143 534 -8 56
-111 -10 -271 -112 -271 -30 0 -39 8 -69 58 -16 28 -24 33 -51 30 -95 -9 -58
-170 49 -214 87 -37 208 1 268 85 46 62 58 114 53 213 -6 113 -45 196 -137
287 -100 101 -200 141 -346 140 -44 0 -104 -7 -132 -14z"/>
<path d="M3286 6565 c-140 -40 -279 -150 -344 -272 -67 -126 -90 -300 -57
-428 57 -221 194 -378 519 -595 133 -88 190 -144 223 -217 21 -44 24 -65 20
-104 -12 -103 -84 -201 -172 -235 -54 -20 -133 -16 -189 11 -50 24 -96 94 -96
148 0 82 98 128 164 76 52 -41 126 -5 126 61 0 89 -153 150 -278 109 -53 -17
-111 -62 -143 -111 -106 -160 -22 -389 179 -484 79 -37 210 -44 298 -16 157
49 298 199 333 353 16 66 13 178 -5 240 -45 153 -127 246 -352 398 -178 120
-245 179 -309 268 -63 88 -86 152 -85 238 0 157 87 272 252 337 80 31 216 31
285 0 63 -29 93 -56 116 -107 34 -74 18 -158 -41 -217 -61 -61 -115 -52 -148
25 -8 19 -19 27 -37 27 -50 0 -65 -16 -65 -68 0 -91 78 -162 178 -162 92 0
179 58 223 148 32 65 32 202 1 282 -47 119 -163 236 -280 281 -72 28 -241 36
-316 14z"/>
<path d="M4452 6564 c-237 -63 -401 -271 -419 -527 -18 -272 135 -499 502
-744 155 -104 217 -160 251 -229 23 -46 26 -64 21 -113 -16 -180 -193 -300
-342 -232 -52 23 -102 81 -111 126 -17 95 80 159 161 105 42 -28 72 -25 106 9
36 36 37 60 3 101 -41 48 -97 72 -170 72 -245 -2 -363 -280 -206 -486 113
-149 332 -200 505 -117 78 37 185 132 224 198 68 116 83 280 38 408 -50 142
-123 218 -358 376 -187 126 -280 218 -334 326 -104 211 -9 431 219 509 64 22
184 25 251 5 59 -17 132 -80 147 -127 38 -113 -38 -251 -132 -242 -27 2 -37
10 -54 43 -15 30 -27 41 -48 43 -97 12 -82 -145 20 -204 48 -28 125 -32 179
-10 58 25 122 92 146 154 17 46 20 73 17 139 -10 189 -151 359 -347 417 -67
20 -197 20 -269 0z"/>
<path d="M6563 6565 c-180 -49 -331 -194 -387 -374 -52 -166 -40 -309 38 -466
77 -154 192 -268 437 -436 216 -146 269 -212 269 -328 0 -67 -24 -123 -75
-179 -66 -74 -152 -98 -250 -71 -80 22 -150 129 -126 192 24 61 99 84 156 47
40 -27 67 -25 104 6 41 35 42 76 1 114 -48 44 -96 62 -167 62 -265 -2 -368
-326 -167 -526 27 -28 77 -63 114 -80 60 -29 73 -31 176 -31 107 0 112 1 185
37 209 104 321 320 276 534 -36 169 -119 269 -362 434 -196 134 -304 238 -356
346 -30 62 -34 78 -34 154 0 111 33 188 111 259 161 148 456 143 534 -8 56
-111 -10 -271 -112 -271 -30 0 -39 8 -69 58 -16 28 -24 33 -51 30 -95 -9 -58
-170 49 -214 87 -37 208 1 268 85 46 62 58 114 53 213 -6 113 -45 196 -137
287 -100 101 -200 141 -346 140 -44 0 -104 -7 -132 -14z"/>
<path d="M7445 6556 c-105 -47 -148 -163 -176 -476 -22 -256 16 -596 101 -879
17 -59 27 -76 53 -92 38 -24 80 -19 115 14 24 21 24 24 16 112 -5 50 -9 146
-9 215 0 106 4 135 24 195 73 212 220 131 155 -86 -33 -109 -17 -227 39 -288
32 -34 95 -61 148 -61 46 0 135 36 159 65 11 13 18 11 49 -14 80 -63 118 -76
221 -76 88 0 101 3 163 33 104 51 183 164 203 290 6 35 9 38 74 63 l67 26 7
-226 c13 -414 46 -772 79 -841 16 -33 73 -40 108 -11 l24 19 0 334 c0 183 -6
540 -14 794 -13 455 -13 461 7 500 27 53 68 93 122 118 65 31 212 29 294 -4
175 -68 254 -259 210 -506 l-6 -31 -106 1 c-120 1 -167 -14 -235 -73 -111 -98
-125 -295 -28 -392 117 -117 323 -48 476 159 l59 81 40 -22 c21 -12 80 -59
130 -104 67 -61 98 -83 118 -83 30 0 58 31 58 65 0 56 -133 198 -236 252 -30
15 -54 33 -54 38 0 6 7 44 16 85 11 54 14 104 11 175 -10 182 -60 310 -161
410 -104 103 -211 145 -366 145 -134 0 -237 -34 -327 -106 l-41 -34 -7 71 c-8
81 -27 109 -74 109 -78 0 -89 -54 -98 -499 l-6 -303 -64 -30 c-36 -17 -68 -27
-72 -22 -4 5 -16 32 -26 59 -25 70 -114 156 -185 180 -68 22 -168 17 -225 -13
-44 -23 -124 -102 -173 -171 -44 -61 -73 -144 -81 -230 -6 -71 -8 -76 -38 -94
-23 -13 -42 -17 -63 -12 -39 9 -47 50 -32 175 16 136 -6 221 -72 277 -96 81
-204 68 -306 -37 l-50 -51 0 46 c0 40 7 54 52 113 116 151 200 414 169 530
-29 105 -140 161 -236 118z m121 -141 c14 -57 -36 -264 -86 -355 l-19 -35 -1
55 c0 62 25 274 36 305 10 28 35 55 50 55 8 0 16 -11 20 -25z m895 -670 c28
-15 52 -46 63 -82 7 -21 4 -23 -28 -23 -42 0 -130 31 -157 56 -62 56 34 94
122 49z m1158 -141 c7 -7 -51 -83 -93 -121 -22 -21 -58 -47 -78 -57 -45 -24
-68 -11 -68 41 0 91 89 160 190 147 25 -3 47 -8 49 -10z m-1375 -23 c30 -33
128 -70 204 -77 40 -4 72 -10 72 -13 0 -4 -13 -28 -30 -54 -60 -95 -170 -113
-250 -41 -46 42 -55 75 -40 149 12 60 18 65 44 36z"/>
<path d="M5295 6081 c-50 -21 -66 -79 -36 -128 18 -29 26 -33 65 -33 36 0 48
5 65 26 27 35 27 77 -1 108 -26 29 -63 39 -93 27z"/>
<path d="M2624 5872 c-6 -4 -21 -27 -34 -52 -29 -59 -26 -57 -58 -27 -48 46
-118 71 -202 71 -122 0 -211 -55 -270 -166 -30 -55 -35 -74 -38 -154 -5 -104
12 -174 57 -234 58 -79 117 -109 214 -110 73 0 121 15 174 56 l32 24 15 -28
c36 -70 117 -112 189 -98 80 16 184 121 251 253 32 65 33 91 4 102 -33 13 -51
0 -117 -87 -122 -161 -177 -180 -217 -77 -24 63 -14 178 27 330 46 171 46 179
14 193 -30 14 -27 14 -41 4z m-145 -185 l40 -27 -13 -38 c-7 -20 -17 -56 -21
-79 -8 -49 -63 -126 -105 -148 -37 -19 -89 -19 -116 0 -48 33 -66 117 -43 198
11 41 61 104 93 118 39 16 122 4 165 -24z"/>
<path d="M5258 5800 c-29 -22 -42 -66 -58 -194 -24 -195 -10 -288 56 -365 42
-49 97 -79 158 -87 88 -13 216 76 286 200 32 55 37 85 18 104 -24 24 -52 11
-127 -61 -116 -110 -174 -123 -214 -47 -16 32 -17 53 -11 221 3 103 3 195 0
206 -6 20 -44 43 -70 43 -7 0 -25 -9 -38 -20z"/>
<path d="M7870 4964 c-168 -30 -332 -95 -478 -189 -100 -65 -112 -78 -112
-118 0 -40 14 -62 49 -76 32 -14 57 -5 139 51 66 46 238 124 322 147 114 31
266 44 371 31 140 -17 325 -77 434 -141 50 -30 93 -28 122 5 29 34 30 76 1
103 -36 33 -180 101 -293 139 -181 60 -388 78 -555 48z"/>
<path d="M2385 4926 c-131 -30 -258 -90 -356 -167 -73 -59 -85 -104 -36 -149
33 -31 73 -25 131 19 75 56 131 86 221 117 68 23 97 27 190 28 92 0 126 -4
208 -28 l99 -29 26 20 c36 27 49 65 34 98 -13 28 -66 55 -160 80 -82 22 -282
28 -357 11z"/>
<path d="M5420 4921 c-88 -29 -184 -113 -220 -193 -16 -36 -17 -46 -6 -72 7
-17 25 -37 40 -44 40 -20 79 0 117 59 61 96 138 120 248 79 53 -19 63 -20 88
-8 15 7 34 26 42 42 35 73 -57 135 -209 142 -41 2 -86 0 -100 -5z"/>
</g>
</svg>
